<svg xmlns="http://www.w3.org/2000/svg" xmlns:xlink="http://www.w3.org/1999/xlink" width="500" zoomAndPan="magnify" viewBox="0 0 375 374.999991" height="500" preserveAspectRatio="xMidYMid meet" version="1.0"><path fill="#ff007f" d="M 285.949219 162.621094 C 292.878906 160.265625 300.160156 159.066406 307.535156 159.066406 C 344.796875 159.070312 375 189.269531 375 226.535156 C 375 263.800781 344.796875 294.003906 307.535156 294.003906 C 296.472656 294.003906 285.726562 291.292969 276.042969 286.183594 C 259.964844 300.222656 239.398438 307.992188 217.859375 307.992188 C 191.078125 307.992188 166.117188 295.957031 149.460938 275.746094 C 133.160156 291.160156 111.527344 299.910156 88.65625 299.910156 C 39.707031 299.910156 0 260.203125 0 211.257812 C 0 162.445312 39.441406 122.867188 88.164062 122.601562 C 101.535156 89.378906 134.003906 67.082031 170.421875 67.082031 C 213.640625 67.082031 250.238281 98.21875 257.699219 140.101562 C 268.535156 145.609375 278.175781 153.25 285.949219 162.621094 Z M 285.949219 162.621094 " fill-opacity="1" fill-rule="evenodd"/><path fill="#ffffff" d="M 88.652344 134.0625 C 91.183594 134.0625 93.714844 134.195312 96.203125 134.417969 C 105.441406 102.128906 135.15625 78.542969 170.421875 78.542969 C 210.398438 78.542969 243.308594 108.964844 247.214844 147.917969 C 261.519531 153.824219 273.6875 163.863281 282.128906 176.566406 C 289.765625 172.703125 298.382812 170.527344 307.535156 170.527344 C 338.445312 170.527344 363.542969 195.578125 363.542969 226.535156 C 363.542969 257.449219 338.449219 282.542969 307.535156 282.542969 C 295.183594 282.542969 283.769531 278.546875 274.488281 271.796875 C 260.410156 286.984375 240.242188 296.535156 217.859375 296.535156 C 189.035156 296.535156 163.894531 280.722656 150.613281 257.316406 C 136.535156 276.238281 114.058594 288.453125 88.652344 288.453125 C 46.015625 288.449219 11.457031 253.894531 11.457031 211.257812 C 11.457031 168.617188 46.015625 134.0625 88.652344 134.0625 Z M 88.652344 134.0625 " fill-opacity="1" fill-rule="evenodd"/><path fill="#ff007f" d="M 110.550781 154.539062 C 137.730469 160.265625 145.992188 196.554688 145.992188 196.332031 C 145.460938 187.582031 168.113281 150.273438 219.234375 142.414062 C 191.121094 139.660156 158.207031 160.621094 147.285156 177.765625 C 140.753906 167.019531 133.113281 154.847656 110.550781 154.539062 Z M 110.550781 154.539062 " fill-opacity="1" fill-rule="evenodd"/><path fill="#ff007f" d="M 91.585938 274.058594 C 59.382812 274.058594 16.566406 250.121094 12.972656 221.425781 C 12.746094 222.628906 12.570312 221.070312 12.4375 220.449219 C 18.433594 257.09375 50.277344 285.027344 88.609375 285.027344 C 113.972656 285.027344 136.488281 272.769531 150.570312 253.894531 C 163.804688 277.300781 188.945312 293.113281 217.769531 293.113281 C 240.199219 293.113281 260.320312 283.5625 274.445312 268.328125 C 283.683594 275.125 295.101562 279.121094 307.492188 279.121094 C 332.898438 279.121094 354.304688 262.199219 361.191406 239.015625 C 361.101562 238.261719 360.964844 237.460938 360.832031 236.707031 C 355.859375 255.539062 333.5625 269.753906 306.777344 269.753906 C 294.652344 269.753906 283.417969 266.820312 274.3125 261.847656 C 260.453125 272.992188 240.644531 279.964844 218.613281 279.964844 C 190.277344 279.964844 165.582031 268.417969 152.523438 251.320312 C 138.664062 265.132812 123.832031 274.058594 91.585938 274.058594 Z M 91.585938 274.058594 " fill-opacity="1" fill-rule="evenodd"/></svg>